<svg xmlns="http://www.w3.org/2000/svg" viewBox="0 0 960 540" width="960" height="540">
<style>
  text { font-family: -apple-system, BlinkMacSystemFont, "Segoe UI", sans-serif; fill: #0f172a; }
  .title { font-size: 22px; font-weight: 700; }
  .subtitle { font-size: 13px; fill: #475569; }
  .box-title { font-size: 14px; font-weight: 700; }
  .box-text { font-size: 12px; fill: #334155; }
  .formula { font-size: 13px; font-family: ui-monospace, SFMono-Regular, monospace; }
  .arrow { stroke: #64748b; stroke-width: 2; fill: none; marker-end: url(#arrow); }
  .label { font-size: 13px; font-weight: 700; }
  .bar-value { font-size: 11px; font-weight: 700; fill: white; }
  .grid { stroke: #cbd5e1; stroke-width: 1; stroke-dasharray: 4 4; }
  .tick { font-size: 10px; fill: #64748b; }
  .budget { stroke: #dc2626; stroke-width: 3; }
  .budget-label { font-size: 12px; font-weight: 700; fill: #b91c1c; }
</style>
<defs><marker id="arrow" markerWidth="8" markerHeight="8" refX="7" refY="4" orient="auto"><path d="M0,0 L8,4 L0,8 Z" fill="#64748b"/></marker></defs>
<rect width="960" height="540" fill="#ffffff"/>
<text x="480" y="38" text-anchor="middle" class="title">R5 Physical Tile ↔ Small-Array SPICE Equivalence</text>
<text x="480" y="62" text-anchor="middle" class="subtitle">Committed 0012/0013 SPICE outputs compared with the 4-bit three-profile CrossbarTile</text>
<rect x="55" y="115" width="185" height="95" rx="10" fill="#eff6ff" stroke="#2563eb"/>
<text x="147" y="143" text-anchor="middle" class="box-title">SPICE evidence</text>
<text x="147" y="167" text-anchor="middle" class="box-text">2×2: 5 cases</text>
<text x="147" y="188" text-anchor="middle" class="box-text">4×4: 5 cases</text>
<path d="M240 162 H300" class="arrow"/>
<rect x="305" y="105" width="195" height="115" rx="10" fill="#ecfdf5" stroke="#0f766e"/>
<text x="402" y="133" text-anchor="middle" class="box-title">Profile-driven tile</text>
<text x="402" y="157" text-anchor="middle" class="box-text">crossbar-v1</text>
<text x="402" y="178" text-anchor="middle" class="box-text">dac-r2r-v1 + adc-sar-v1</text>
<text x="402" y="199" text-anchor="middle" class="box-text">G/DAC/ADC = 4 bits</text>
<rect x="55" y="270" width="445" height="135" rx="10" fill="#f8fafc" stroke="#64748b"/>
<text x="75" y="300" class="box-title">Frozen acceptance formula</text>
<text x="75" y="329" class="formula">e_c = max_j |V_tile[c,j] − V_spice[c,j]|</text>
<text x="75" y="355" class="formula">E_max = max_c e_c</text>
<text x="75" y="381" class="formula">PASS ⇔ E_max ≤ adc.quantization_error_v</text>
<text x="730.0" y="105" text-anchor="middle" class="box-title">Maximum absolute voltage residual</text>
<text x="550" y="208" text-anchor="end" class="label">2×2</text><rect x="565" y="190" width="317.1" height="28" rx="4" fill="#2563eb"/><text x="875.1" y="209" text-anchor="end" class="bar-value">0.150124 V</text><text x="550" y="280" text-anchor="end" class="label">4×4</text><rect x="565" y="262" width="301.6" height="28" rx="4" fill="#0f766e"/><text x="859.6" y="281" text-anchor="end" class="bar-value">0.142807 V</text><text x="550" y="352" text-anchor="end" class="label">All</text><rect x="565" y="334" width="317.1" height="28" rx="4" fill="#7c3aed"/><text x="875.1" y="353" text-anchor="end" class="bar-value">0.150124 V</text><line x1="565.0" y1="165" x2="565.0" y2="405" class="grid"/><text x="565.0" y="427" text-anchor="middle" class="tick">0.000</text><line x1="647.5" y1="165" x2="647.5" y2="405" class="grid"/><text x="647.5" y="427" text-anchor="middle" class="tick">0.039</text><line x1="730.0" y1="165" x2="730.0" y2="405" class="grid"/><text x="730.0" y="427" text-anchor="middle" class="tick">0.078</text><line x1="812.5" y1="165" x2="812.5" y2="405" class="grid"/><text x="812.5" y="427" text-anchor="middle" class="tick">0.117</text><line x1="895.0" y1="165" x2="895.0" y2="405" class="grid"/><text x="895.0" y="427" text-anchor="middle" class="tick">0.156</text><line x1="895.0" y1="160" x2="895.0" y2="405" class="budget"/><text x="895.0" y="147" text-anchor="end" class="budget-label">ADC budget = 0.15625 V</text>
<text x="730.0" y="452" text-anchor="middle" class="subtitle">Error (V); red line is the frozen profile-derived threshold</text>
<rect x="55" y="450" width="840" height="55" rx="8" fill="#fff7ed" stroke="#ea580c"/>
<text x="475" y="474" text-anchor="middle" class="box-text">SYSTEM_SIMULATED regression only: crossbar-v1 assumed parameters and unconsumed IR-drop/variation/drift/fault/I-V fields</text>
<text x="475" y="493" text-anchor="middle" class="box-text">prevent promotion to a verified physical-tile claim.</text>
</svg>
