<svg xmlns="http://www.w3.org/2000/svg" viewBox="0 0 960 540" width="960" height="540">
<style>
text { font-family: -apple-system, BlinkMacSystemFont, "Segoe UI", sans-serif; fill: #0f172a; }
.title { font-size: 20px; font-weight: 700; }
.sub { font-size: 12px; fill: #475569; }
.box-title { font-size: 13px; font-weight: 700; }
.box-text { font-size: 11px; fill: #334155; }
.formula { font: 12px ui-monospace, monospace; fill: #1e293b; }
</style>
<rect width="960" height="540" fill="white"/>
<text x="480" y="35" text-anchor="middle" class="title">Chapter 0040 — Physical Area &amp; Process Model</text>
<text x="480" y="55" text-anchor="middle" class="sub">28nm CMOS Area Ledger across 416 Physical Crossbar Tiles (Gate R8)</text>

<!-- Left Card: Area Coefficients -->
<rect x="50" y="80" width="410" height="230" rx="10" fill="#eff6ff" stroke="#2563eb" stroke-width="2"/>
<text x="70" y="105" class="box-title" fill="#1d4ed8">1. Physical Area Coefficients (28nm CMOS)</text>
<rect x="70" y="120" width="370" height="175" rx="6" fill="white" stroke="#93c5fd"/>
<text x="85" y="145" class="box-title" fill="#15803d">• A_cell = 0.0064 µm² (DERIVED: 28nm 1T1R bit cell)</text>
<text x="85" y="167" class="box-text">• A_xbar = 11.52 µm² (DERIVED: 16×18 crossbar array)</text>
<text x="85" y="189" class="box-text">• A_dac = 25.0 µm² (ASSUMED: 4-bit PWM driver)</text>
<text x="85" y="211" class="box-text">• A_adc = 150.0 µm² (ASSUMED: 4-bit SAR ADC + TIA)</text>
<text x="85" y="233" class="box-text">• A_sram32 = 40,000 µm² (DERIVED: 28nm SRAM macro)</text>
<text x="85" y="255" class="box-text">• A_simd = 5,000 µm² (ASSUMED: 32-wide vector ALU)</text>
<text x="85" y="277" class="box-text">• A_noc = 2,000 µm² (ASSUMED: 2D mesh router fabric)</text>

<!-- Right Card: Chip Summary -->
<rect x="500" y="80" width="410" height="230" rx="10" fill="#faf5ff" stroke="#9333ea" stroke-width="2"/>
<text x="520" y="105" class="box-title" fill="#7e22ce">2. Chip Floorplan Summary (28nm)</text>
<rect x="520" y="120" width="370" height="175" rx="6" fill="white" stroke="#d8b4fe"/>
<text x="535" y="148" class="box-title" fill="#1e293b">Single Tile Area:</text>
<text x="535" y="175" class="title" fill="#15803d">3281.5 µm² / tile</text>
<text x="535" y="205" class="box-title" fill="#1e293b">Total Chip Die Area:</text>
<text x="535" y="232" class="title" fill="#2563eb">1.412 mm²</text>
<text x="535" y="262" class="formula">Packed Synapses: 119,808 | Efficiency: 75.6 GOPS/mm²</text>

<!-- Bottom Floorplan Card -->
<rect x="50" y="330" width="860" height="175" rx="12" fill="#f8fafc" stroke="#94a3b8" stroke-width="2"/>
<text x="70" y="360" class="box-title">3. Chip-Level Block Floorplan</text>

<rect x="70" y="378" width="190" height="107" rx="8" fill="#dbeafe" stroke="#3b82f6"/>
<text x="165" y="405" text-anchor="middle" class="box-title" fill="#1e40af">416-Tile Array</text>
<text x="165" y="430" text-anchor="middle" class="box-text">1.365 mm²</text>
<text x="165" y="452" text-anchor="middle" class="box-text">Crossbar + DAC/ADC</text>
<text x="165" y="472" text-anchor="middle" class="sub">85.4% of die area</text>

<rect x="280" y="378" width="190" height="107" rx="8" fill="#fef3c7" stroke="#f59e0b"/>
<text x="375" y="405" text-anchor="middle" class="box-title" fill="#b45309">SRAM 32 KB</text>
<text x="375" y="430" text-anchor="middle" class="box-text">0.0400 mm²</text>
<text x="375" y="452" text-anchor="middle" class="box-text">KV Cache + Buffers</text>
<text x="375" y="472" text-anchor="middle" class="sub">8.4% of die area</text>

<rect x="490" y="378" width="190" height="107" rx="8" fill="#dcfce7" stroke="#22c55e"/>
<text x="585" y="405" text-anchor="middle" class="box-title" fill="#15803d">SIMD Cluster</text>
<text x="585" y="430" text-anchor="middle" class="box-text">0.0050 mm²</text>
<text x="585" y="452" text-anchor="middle" class="box-text">32-wide vector ALU</text>
<text x="585" y="472" text-anchor="middle" class="sub">1.0% of die area</text>

<rect x="700" y="378" width="190" height="107" rx="8" fill="#f1f5f9" stroke="#64748b"/>
<text x="795" y="405" text-anchor="middle" class="box-title">NoC Router</text>
<text x="795" y="430" text-anchor="middle" class="box-text">0.0020 mm²</text>
<text x="795" y="452" text-anchor="middle" class="box-text">2D Mesh Fabric</text>
<text x="795" y="472" text-anchor="middle" class="sub">0.4% of die area</text>
</svg>
